<svg xmlns="http://www.w3.org/2000/svg" xmlns:xlink="http://www.w3.org/1999/xlink" version="1.1" data-diagram-type="DESCRIPTION" style="width:974px;height:417px;background:#FFFFFF;" width="974px" height="417px" viewBox="0 0 974 417" zoomAndPan="magnify" preserveAspectRatio="none" contentStyleType="text/css"><?plantuml 1.2026.7?><defs/><g font-family="sans-serif" lengthAdjust="spacing"><!--cluster Student Project Portfolio & Showcase System--><g class="cluster" data-qualified-name="Student Project Portfolio . Showcase System" id="ent0004" data-source-line="23"><rect x="152" y="15.83" width="808" height="358" fill="none" style="stroke:#17233B;stroke-width:1;" rx="2.5" ry="2.5"/><text x="375.771" y="30.825" fill="#17233B" font-size="14" textLength="360.459" font-weight="700">Student Project Portfolio &amp; Showcase System</text></g><!--entity UC1--><g class="entity" data-qualified-name="Student Project Portfolio . Showcase System.UC1" id="ent0005" data-source-line="24"><ellipse cx="547.491" cy="76.029" rx="79.991" ry="23.699" fill="#F5F6F2" style="stroke:#17233B;stroke-width:0.5;"/><text x="486.873" y="76.064" fill="#17233B" font-size="14" textLength="121.235">Create Showcase</text><text x="525.449" y="92.361" fill="#17233B" font-size="14" textLength="44.085">Profile</text></g><!--entity UC2--><g class="entity" data-qualified-name="Student Project Portfolio . Showcase System.UC2" id="ent0006" data-source-line="25"><ellipse cx="855.066" cy="75.802" rx="89.066" ry="23.472" fill="#F5F6F2" style="stroke:#17233B;stroke-width:0.5;"/><text x="786.552" y="76.209" fill="#17233B" font-size="14" textLength="137.026">Validate Repository</text><text x="841.178" y="92.506" fill="#17233B" font-size="14" textLength="27.774">URL</text></g><!--entity UC3--><g class="entity" data-qualified-name="Student Project Portfolio . Showcase System.UC3" id="ent0007" data-source-line="26"><ellipse cx="248.489" cy="75.899" rx="80.489" ry="24.569" fill="#F5F6F2" style="stroke:#17233B;stroke-width:0.5;"/><text x="189.94" y="74.567" fill="#17233B" font-size="14" textLength="117.1">Edit or Withdraw</text><text x="208.444" y="90.864" fill="#17233B" font-size="14" textLength="80.09">Submission</text></g><!--entity UC4--><g class="entity" data-qualified-name="Student Project Portfolio . Showcase System.UC4" id="ent0008" data-source-line="27"><ellipse cx="248.472" cy="245.685" rx="64.972" ry="24.855" fill="#F5F6F2" style="stroke:#17233B;stroke-width:0.5;"/><text x="202.261" y="243.92" fill="#17233B" font-size="14" textLength="92.422">Score Project</text><text x="213.454" y="260.217" fill="#17233B" font-size="14" textLength="70.034">via Rubric</text></g><!--entity UC5--><g class="entity" data-qualified-name="Student Project Portfolio . Showcase System.UC5" id="ent0009" data-source-line="28"><ellipse cx="547.277" cy="245.889" rx="93.277" ry="23.559" fill="#F5F6F2" style="stroke:#17233B;stroke-width:0.5;"/><text x="475.715" y="246.153" fill="#17233B" font-size="14" textLength="143.124">Calculate Aggregate</text><text x="527.518" y="262.449" fill="#17233B" font-size="14" textLength="39.519">Score</text></g><!--entity UC6--><g class="entity" data-qualified-name="Student Project Portfolio . Showcase System.UC6" id="ent0010" data-source-line="29"><ellipse cx="547.465" cy="322.854" rx="50.965" ry="14.524" fill="#F5F6F2" style="stroke:#17233B;stroke-width:0.5;"/><text x="513.549" y="327.502" fill="#17233B" font-size="14" textLength="67.833">Cast Vote</text></g><!--entity UC7--><g class="entity" data-qualified-name="Student Project Portfolio . Showcase System.UC7" id="ent0011" data-source-line="30"><ellipse cx="854.882" cy="322.753" rx="57.882" ry="24.423" fill="#F5F6F2" style="stroke:#17233B;stroke-width:0.5;"/><text x="813.132" y="321.645" fill="#17233B" font-size="14" textLength="83.501">Verify Voter</text><text x="828.055" y="337.942" fill="#17233B" font-size="14" textLength="53.655">Identity</text></g><!--entity UC8--><g class="entity" data-qualified-name="Student Project Portfolio . Showcase System.UC8" id="ent0012" data-source-line="31"><ellipse cx="248.68" cy="332.017" rx="78.18" ry="25.687" fill="#F5F6F2" style="stroke:#17233B;stroke-width:0.5;"/><text x="194.676" y="329.031" fill="#17233B" font-size="14" textLength="108.008">Flag Suspicious</text><text x="198.193" y="345.327" fill="#17233B" font-size="14" textLength="100.974">Voting Pattern</text></g><!--entity UC9--><g class="entity" data-qualified-name="Student Project Portfolio . Showcase System.UC9" id="ent0013" data-source-line="32"><ellipse cx="248.523" cy="160.648" rx="62.523" ry="24.818" fill="#F5F6F2" style="stroke:#17233B;stroke-width:0.5;"/><text x="215.239" y="155.357" fill="#17233B" font-size="14" textLength="66.568">View Live</text><text x="204.062" y="171.654" fill="#17233B" font-size="14" textLength="88.922">Leaderboard</text></g><!--entity Team--><g class="entity" data-qualified-name="Team" id="ent0001" data-source-line="19"><ellipse cx="55.472" cy="46.33" rx="8" ry="8" fill="#F1F1F1" style="stroke:#17233B;stroke-width:0.5;"/><path d="M55.472,54.33 L55.472,81.33 M42.472,62.33 L68.472,62.33 M55.472,81.33 L42.472,96.33 M55.472,81.33 L68.472,96.33" style="stroke:#17233B;stroke-width:0.5;" fill="none"/><text x="6" y="110.825" fill="#17233B" font-size="14" textLength="98.943">Student Team</text></g><!--entity Judge--><g class="entity" data-qualified-name="Judge" id="ent0002" data-source-line="20"><ellipse cx="55.618" cy="176.33" rx="8" ry="8" fill="#F1F1F1" style="stroke:#17233B;stroke-width:0.5;"/><path d="M55.618,184.33 L55.618,211.33 M42.618,192.33 L68.618,192.33 M55.618,211.33 L42.618,226.33 M55.618,211.33 L68.618,226.33" style="stroke:#17233B;stroke-width:0.5;" fill="none"/><text x="14.5" y="240.825" fill="#17233B" font-size="14" textLength="82.236">Panel Judge</text></g><!--entity Voter--><g class="entity" data-qualified-name="Voter" id="ent0003" data-source-line="21"><ellipse cx="55.565" cy="336.33" rx="8" ry="8" fill="#F1F1F1" style="stroke:#17233B;stroke-width:0.5;"/><path d="M55.565,344.33 L55.565,371.33 M42.565,352.33 L68.565,352.33 M55.565,371.33 L42.565,386.33 M55.565,371.33 L68.565,386.33" style="stroke:#17233B;stroke-width:0.5;" fill="none"/><text x="13.5" y="400.825" fill="#17233B" font-size="14" textLength="84.13">Public Voter</text></g><!--link Team to UC1--><g class="link" data-entity-1="ent0001" data-entity-2="ent0005" id="lnk14" data-source-line="35" data-link-type="dependency"><path d="M105.07,47.81 C117.38,42.04 130.86,36.82 144,33.83 C266.28,6 408.91,36.069 486.97,57.629" style="stroke:#17233B;stroke-width:1;" fill="none" id="Team-to-UC1"/><polygon points="491.79,58.96,484.18,52.708,486.97,57.629,482.05,60.42,491.79,58.96" fill="#17233B" style="stroke:#17233B;stroke-width:1;stroke-linejoin:miter;stroke-miterlimit:10;"/></g><!--link Team to UC3--><g class="link" data-entity-1="ent0001" data-entity-2="ent0007" id="lnk15" data-source-line="36" data-link-type="dependency"><path d="M105.19,75.83 C124.2,75.83 141.5,75.83 162.73,75.83" style="stroke:#17233B;stroke-width:1;" fill="none" id="Team-to-UC3"/><polygon points="167.73,75.83,158.73,71.83,162.73,75.83,158.73,79.83,167.73,75.83" fill="#17233B" style="stroke:#17233B;stroke-width:1;stroke-linejoin:miter;stroke-miterlimit:10;"/></g><!--link Judge to UC4--><g class="link" data-entity-1="ent0002" data-entity-2="ent0008" id="lnk16" data-source-line="37" data-link-type="dependency"><path d="M96.54,214.22 C123.89,219.94 155.626,226.584 185.956,232.944" style="stroke:#17233B;stroke-width:1;" fill="none" id="Judge-to-UC4"/><polygon points="190.85,233.97,182.862,228.208,185.956,232.944,181.221,236.038,190.85,233.97" fill="#17233B" style="stroke:#17233B;stroke-width:1;stroke-linejoin:miter;stroke-miterlimit:10;"/></g><!--link Voter to UC6--><g class="link" data-entity-1="ent0003" data-entity-2="ent0010" id="lnk17" data-source-line="38" data-link-type="dependency"><path d="M97.83,370.96 C112.39,372.53 128.9,374.06 144,374.83 C226.11,379.04 247.34,384.46 329,374.83 C395.13,367.04 465.484,347.796 507.884,334.986" style="stroke:#17233B;stroke-width:1;" fill="none" id="Voter-to-UC6"/><polygon points="512.67,333.54,502.898,332.314,507.884,334.986,505.211,339.972,512.67,333.54" fill="#17233B" style="stroke:#17233B;stroke-width:1;stroke-linejoin:miter;stroke-miterlimit:10;"/></g><!--link Team to UC9--><g class="link" data-entity-1="ent0001" data-entity-2="ent0013" id="lnk18" data-source-line="39" data-link-type="dependency"><path d="M105.34,99.84 C117.88,105.85 131.39,112.19 144,117.83 C163.45,126.53 180.574,133.752 199.094,141.352" style="stroke:#17233B;stroke-width:1;" fill="none" id="Team-to-UC9"/><polygon points="203.72,143.25,196.912,136.133,199.094,141.352,193.875,143.534,203.72,143.25" fill="#17233B" style="stroke:#17233B;stroke-width:1;stroke-linejoin:miter;stroke-miterlimit:10;"/></g><!--link Judge to UC9--><g class="link" data-entity-1="ent0002" data-entity-2="ent0013" id="lnk19" data-source-line="40" data-link-type="dependency"><path d="M96.54,196.4 C124.87,189.72 158.303,181.847 189.233,174.557" style="stroke:#17233B;stroke-width:1;" fill="none" id="Judge-to-UC9"/><polygon points="194.1,173.41,184.422,171.581,189.233,174.557,186.258,179.368,194.1,173.41" fill="#17233B" style="stroke:#17233B;stroke-width:1;stroke-linejoin:miter;stroke-miterlimit:10;"/></g><!--link Voter to UC9--><g class="link" data-entity-1="ent0003" data-entity-2="ent0013" id="lnk20" data-source-line="41" data-link-type="dependency"><path d="M73.29,327.68 C92.52,285.42 123.93,220.86 144,202.83 C158.5,189.81 172.87,182.245 190.68,175.785" style="stroke:#17233B;stroke-width:1;" fill="none" id="Voter-to-UC9"/><polygon points="195.38,174.08,185.555,173.389,190.68,175.785,188.283,180.909,195.38,174.08" fill="#17233B" style="stroke:#17233B;stroke-width:1;stroke-linejoin:miter;stroke-miterlimit:10;"/></g><!--link UC1 to UC2--><g class="link" data-entity-1="ent0005" data-entity-2="ent0006" id="lnk21" data-source-line="43" data-link-type="dependency"><path d="M627.57,75.83 C669.91,75.83 717.19,75.83 760.84,75.83" style="stroke:#17233B;stroke-width:1;stroke-dasharray:7,7;" fill="none" id="UC1-to-UC2"/><polygon points="765.84,75.83,756.84,71.83,760.84,75.83,756.84,79.83,765.84,75.83" fill="#17233B" style="stroke:#17233B;stroke-width:1;stroke-linejoin:miter;stroke-miterlimit:10;"/><text x="672" y="71.897" fill="#4B5568" font-size="13" textLength="63.007">«include»</text></g><!--link UC4 to UC5--><g class="link" data-entity-1="ent0008" data-entity-2="ent0009" id="lnk22" data-source-line="44" data-link-type="dependency"><path d="M313.58,245.83 C354.51,245.83 403.24,245.83 448.79,245.83" style="stroke:#17233B;stroke-width:1;stroke-dasharray:7,7;" fill="none" id="UC4-to-UC5"/><polygon points="453.79,245.83,444.79,241.83,448.79,245.83,444.79,249.83,453.79,245.83" fill="#17233B" style="stroke:#17233B;stroke-width:1;stroke-linejoin:miter;stroke-miterlimit:10;"/><text x="360" y="241.897" fill="#4B5568" font-size="13" textLength="63.007">«include»</text></g><!--link UC6 to UC7--><g class="link" data-entity-1="ent0010" data-entity-2="ent0011" id="lnk23" data-source-line="45" data-link-type="dependency"><path d="M598.61,322.83 C653.03,322.83 734.8,322.83 791.84,322.83" style="stroke:#17233B;stroke-width:1;stroke-dasharray:7,7;" fill="none" id="UC6-to-UC7"/><polygon points="796.84,322.83,787.84,318.83,791.84,322.83,787.84,326.83,796.84,322.83" fill="#17233B" style="stroke:#17233B;stroke-width:1;stroke-linejoin:miter;stroke-miterlimit:10;"/><text x="672" y="318.897" fill="#4B5568" font-size="13" textLength="63.007">«include»</text></g><!--link UC3 to UC1--><g class="link" data-entity-1="ent0007" data-entity-2="ent0005" id="lnk24" data-source-line="47" data-link-type="dependency"><path d="M329.09,75.83 C371.96,75.83 419.68,75.83 462.46,75.83" style="stroke:#17233B;stroke-width:1;stroke-dasharray:7,7;" fill="none" id="UC3-to-UC1"/><polygon points="467.46,75.83,458.46,71.83,462.46,75.83,458.46,79.83,467.46,75.83" fill="#17233B" style="stroke:#17233B;stroke-width:1;stroke-linejoin:miter;stroke-miterlimit:10;"/><text x="361" y="71.897" fill="#4B5568" font-size="13" textLength="61.185">«extend»</text></g><!--link UC8 to UC6--><g class="link" data-entity-1="ent0012" data-entity-2="ent0010" id="lnk25" data-source-line="48" data-link-type="dependency"><path d="M326.37,329.5 C380,327.88 445.012,325.902 491.522,324.492" style="stroke:#17233B;stroke-width:1;stroke-dasharray:7,7;" fill="none" id="UC8-to-UC6"/><polygon points="496.52,324.34,487.403,320.615,491.522,324.492,487.645,328.611,496.52,324.34" fill="#17233B" style="stroke:#17233B;stroke-width:1;stroke-linejoin:miter;stroke-miterlimit:10;"/><text x="361" y="322.897" fill="#4B5568" font-size="13" textLength="61.185">«extend»</text></g><?plantuml-src dPB1Zjem48RlVeeHbNhRbI0am6g5jA16QiK1aUxsaekJ366wnaQsinIj-kvrZA49UsflzdoV9x-T4RYrO1LegdSMAj9OMbAIcLUI1wxv7WfUljPQDR9QAg4q77TaiSCRWoKt2EyCO77ZVahZD4b7BL6wGXsgmyaeYXQkcYffRsjFMgjZl_YxypbUMaVU_w5bztHxFIvhWV_TmSVhAED572TJniwv1fbjAfGMlYFV3u0RlxZ0DPSeu5jJrUYPNrrXKmWguKLPr9xw5MD_8r-RhxNwwQgmLjfkbI05do7RgQF_3zd9M7JVRYzu-JU3fKPkyIhbqhNOaZZ7U5uEk-uB5rIrzWOFof0BTyhbysOLt57N_LAH1PV-1zbTfVanbrbJxCaODqF1Zxf-LYgDb_ovV2CEcwRGL0Pvt0lDHTc8DibJNMkitShrRpi4E-xRnlet2p3ftGarRK_d9ytbr_OLoPw2EUcQgU0rP8qvK4cgCRbqPqZMiERMdRrSQjfhJdY45RsvT2laRg8AnNKLp9cR7jOE0TpTpVrJTpOHyoCGTcFcyuLTqXLdFN7M4sUCkRPmVzzkHl00ZuyaI-56PJvtP1n8_84aWKnkY4DHG4EFy9T5MVapqm2IFlW3?></g></svg>